<svg fill="none" height="23" viewBox="0 0 25 23" width="25" xmlns="http://www.w3.org/2000/svg"><g fill="#4d4d4d"><path d="m6.95925 7.48591-2.70241 2.82899 7.43476 7.783 13.3086-13.93199-2.7014-2.829-10.6072 11.10199z"/><path d="m20.0604 20c0 .542-.4375 1-.9553 1h-16.23933c-.51775 0-.95526-.458-.95526-1v-17c0-.542.43751-1 .95526-1h16.15143l1.5141-1.585c-.4317-.268458-.924-.41170031-1.4262-.415h-16.23933c-1.57617 0-2.86577 1.35-2.86577 3v17c0 1.65 1.2896 3 2.86577 3h16.23933c1.5762 0 2.8658-1.35 2.8658-3v-9.829l-1.9105 2z"/></g></svg>